<global>
amp_veltrack=0
ampeg_release=1.5

<group>
group_label=RR1
seq_length=4
seq_position=1

<region>
hivel=100
key=D4
lovel=76
offset=5572
sample=BigCym_Mallets_Hit_Damped_F_D4_RR1.opus

<region>
hivel=127
key=D4
lovel=101
offset=5566
sample=BigCym_Mallets_Hit_Damped_FF_D4_RR1.opus

<region>
hivel=75
key=D4
lovel=51
offset=5101
sample=BigCym_Mallets_Hit_Damped_MF_D4_RR1.opus

<region>
hivel=50
key=D4
lovel=26
offset=5958
sample=BigCym_Mallets_Hit_Damped_MP_D4_RR1.opus

<region>
hivel=25
key=D4
lovel=0
offset=11139
sample=BigCym_Mallets_Hit_Damped_P_D4_RR1.opus

<group>
group_label=RR2
seq_length=4
seq_position=2

<region>
hivel=100
key=D4
lovel=76
offset=4742
sample=BigCym_Mallets_Hit_Damped_F_D4_RR2.opus

<region>
hivel=127
key=D4
lovel=101
offset=4134
sample=BigCym_Mallets_Hit_Damped_FF_D4_RR2.opus

<region>
hivel=75
key=D4
lovel=51
offset=5572
sample=BigCym_Mallets_Hit_Damped_MF_D4_RR2.opus

<region>
hivel=50
key=D4
lovel=26
offset=5230
sample=BigCym_Mallets_Hit_Damped_MP_D4_RR2.opus

<region>
hivel=25
key=D4
lovel=0
offset=5953
sample=BigCym_Mallets_Hit_Damped_P_D4_RR2.opus

<group>
group_label=RR3
seq_length=4
seq_position=3

<region>
hivel=100
key=D4
lovel=76
offset=5312
sample=BigCym_Mallets_Hit_Damped_F_D4_RR3.opus

<region>
hivel=127
key=D4
lovel=101
offset=4016
sample=BigCym_Mallets_Hit_Damped_FF_D4_RR3.opus

<region>
end=183900
hivel=75
key=D4
lovel=51
offset=5560
sample=BigCym_Mallets_Hit_Damped_MF_D4_RR4.opus

<region>
hivel=50
key=D4
lovel=26
offset=5561
sample=BigCym_Mallets_Hit_Damped_MP_D4_RR3.opus

<region>
hivel=25
key=D4
lovel=0
offset=7840
sample=BigCym_Mallets_Hit_Damped_P_D4_RR3.opus

<group>
group_label=RR4
seq_length=4
seq_position=4

<region>
hivel=100
key=D4
lovel=76
offset=5586
sample=BigCym_Mallets_Hit_Damped_F_D4_RR4.opus

<region>
hivel=127
key=D4
lovel=101
offset=6236
sample=BigCym_Mallets_Hit_Damped_FF_D4_RR4.opus

<region>
hivel=50
key=D4
lovel=26
offset=5614
sample=BigCym_Mallets_Hit_Damped_MP_D4_RR4.opus

<region>
hivel=25
key=D4
lovel=0
offset=4138
sample=BigCym_Mallets_Hit_Damped_P_D4_RR4.opus

<region>
hivel=75
key=D4
lovel=51
offset=214997
sample=BigCym_Mallets_Hit_Damped_MF_D4_RR4.opus

